<?xml version="1.0"?>
<svg xmlns="http://www.w3.org/2000/svg" viewBox="0 0 16 16">
    <path style="line-height:normal;text-indent:0;text-align:start;text-decoration-line:none;text-decoration-style:solid;text-decoration-color:#000;text-transform:none;block-progression:tb;isolation:auto;mix-blend-mode:normal" d="M 3 1 L 3 2 L 2.5 2 C 1.6774686 2 1 2.6774686 1 3.5 L 1 12.5 C 1 13.322531 1.6774686 14 2.5 14 L 12.5 14 C 13.322531 14 14 13.322531 14 12.5 L 14 3.5 C 14 2.6774686 13.322531 2 12.5 2 L 12 2 L 12 1 L 11 1 L 11 2 L 4 2 L 4 1 L 3 1 z M 2.5 3 L 3 3 L 3 4 L 4 4 L 4 3 L 11 3 L 11 4 L 12 4 L 12 3 L 12.5 3 C 12.781469 3 13 3.2185314 13 3.5 L 13 5 L 2 5 L 2 3.5 C 2 3.2185314 2.2185314 3 2.5 3 z M 2 6 L 13 6 L 13 12.5 C 13 12.781469 12.781469 13 12.5 13 L 2.5 13 C 2.2185314 13 2 12.781469 2 12.5 L 2 6 z M 3 7 L 3 9 L 4 9 L 4 7 L 3 7 z M 6.5 7 C 5.6772727 7 5 7.6772727 5 8.5 L 5 10.5 C 5 11.322727 5.6772727 12 6.5 12 C 7.3227273 12 8 11.322727 8 10.5 L 8 8.5 C 8 7.6772727 7.3227273 7 6.5 7 z M 10.5 7 C 9.673 7 9 7.673 9 8.5 L 9 9 L 9 10.5 C 9 11.322531 9.6774686 12 10.5 12 C 11.322531 12 12 11.322531 12 10.5 C 12 9.6774686 11.322531 9 10.5 9 C 10.32433 9 10.15725 9.0371335 10 9.09375 L 10 9 L 10 8.5 C 10 8.224 10.225 8 10.5 8 L 11.908203 8 C 11.701203 7.419 11.151 7 10.5 7 z M 6.5 8 C 6.7772727 8 7 8.2227273 7 8.5 L 7 10.5 C 7 10.777273 6.7772727 11 6.5 11 C 6.2227273 11 6 10.777273 6 10.5 L 6 8.5 C 6 8.2227273 6.2227273 8 6.5 8 z M 10.5 10 C 10.781469 10 11 10.218531 11 10.5 C 11 10.781469 10.781469 11 10.5 11 C 10.218531 11 10 10.781469 10 10.5 C 10 10.218531 10.218531 10 10.5 10 z"/>
</svg>
