<?xml version="1.0"?>
<svg xmlns="http://www.w3.org/2000/svg" viewBox="0 0 16 16">
    <path style="line-height:normal;text-indent:0;text-align:start;text-decoration-line:none;text-decoration-style:solid;text-decoration-color:#000;text-transform:none;block-progression:tb;isolation:auto;mix-blend-mode:normal" d="M 3 1 L 3 2 L 2.5 2 C 1.6774686 2 1 2.6774686 1 3.5 L 1 12.5 C 1 13.322531 1.6774686 14 2.5 14 L 12.5 14 C 13.322531 14 14 13.322531 14 12.5 L 14 3.5 C 14 2.6774686 13.322531 2 12.5 2 L 12 2 L 12 1 L 11 1 L 11 2 L 4 2 L 4 1 L 3 1 z M 2.5 3 L 3 3 L 3 4 L 4 4 L 4 3 L 11 3 L 11 4 L 12 4 L 12 3 L 12.5 3 C 12.781469 3 13 3.2185314 13 3.5 L 13 5 L 2 5 L 2 3.5 C 2 3.2185314 2.2185314 3 2.5 3 z M 2 6 L 13 6 L 13 12.5 C 13 12.781469 12.781469 13 12.5 13 L 2.5 13 C 2.2185314 13 2 12.781469 2 12.5 L 2 6 z M 4 7 L 4 9 L 5 9 L 5 7 L 4 7 z M 6 7 L 6 12 L 7 12 L 7 7 L 6 7 z M 9.5 7 C 8.6774686 7 8 7.6774686 8 8.5 L 9 8.5 C 9 8.2185314 9.2185314 8 9.5 8 C 9.7814686 8 10 8.2185314 10 8.5 C 10 8.5235718 9.9272924 8.7776401 9.7597656 9.0546875 C 9.5922389 9.3317349 9.3541165 9.6511926 9.1132812 9.9453125 C 8.6316112 10.533552 8.1464844 11.021484 8.1464844 11.021484 L 8 11.167969 L 8 12 L 11 12 L 11 11 L 9.5078125 11 C 9.6716115 10.819007 9.6966335 10.810266 9.8867188 10.578125 C 10.145884 10.26162 10.407761 9.9153745 10.615234 9.5722656 C 10.822708 9.2291568 11 8.9089282 11 8.5 C 11 7.6774686 10.322531 7 9.5 7 z"/>
</svg>
