<?xml version="1.0"?>
<svg xmlns="http://www.w3.org/2000/svg" viewBox="0 0 16 16">
    <path style="line-height:normal;text-indent:0;text-align:start;text-decoration-line:none;text-decoration-style:solid;text-decoration-color:#000;text-transform:none;block-progression:tb;isolation:auto;mix-blend-mode:normal" d="M 3 1 L 3 2 L 2.5 2 C 1.6774686 2 1 2.6774686 1 3.5 L 1 12.5 C 1 13.322531 1.6774686 14 2.5 14 L 12.5 14 C 13.322531 14 14 13.322531 14 12.5 L 14 3.5 C 14 2.6774686 13.322531 2 12.5 2 L 12 2 L 12 1 L 11 1 L 11 2 L 4 2 L 4 1 L 3 1 z M 2.5 3 L 3 3 L 3 4 L 4 4 L 4 3 L 11 3 L 11 4 L 12 4 L 12 3 L 12.5 3 C 12.781469 3 13 3.2185314 13 3.5 L 13 5 L 2 5 L 2 3.5 C 2 3.2185314 2.2185314 3 2.5 3 z M 2 6 L 13 6 L 13 12.5 C 13 12.781469 12.781469 13 12.5 13 L 2.5 13 C 2.2185314 13 2 12.781469 2 12.5 L 2 6 z M 4 7 L 4 9 L 5 9 L 5 7 L 4 7 z M 6 7 L 6 12 L 7 12 L 7 7 L 6 7 z M 8.0058594 7 L 8.0058594 8 L 9.7890625 8 L 8 12 L 9.0957031 12 L 11 7.828125 L 11.005859 7 L 8.0058594 7 z"/>
</svg>
